<?xml version="1.0" encoding="UTF-8"?>
<svg id="Layer_1" xmlns="http://www.w3.org/2000/svg" version="1.1" viewBox="0 0 128 128">
  <!-- Generator: Adobe Illustrator 29.1.0, SVG Export Plug-In . SVG Version: 2.1.0 Build 142)  -->
  <defs>
    <style>
      .st0 {
        fill: #616161;
      }

      .st1 {
        display: none;
      }
    </style>
  </defs>
  <g class="st1">
    <g>
      <path class="st0" d="M51.1729927,113.6058044c-.6085701-.0890961-1.7339745-.835144-2.2862053-1.180542-.6422005-.4016647-1.1219254-.8348618-1.64328-1.3790131-.3026237-.3158493-.4612923-.4321442-.7826843-.7106857-.7698784-.6672287-1.4525185-1.5496674-2.2208176-2.2237244-.4619026-.4052429-1.0124664-.7164383-1.4751358-1.1204758-.7085114-.6187286-1.191761-1.4405594-1.7976227-2.1491318-.4683533-.5477524-.9305344-.9508438-1.3294373-1.5861816-.5043488-.8032913-.9967651-1.6803589-1.4136124-2.5331421-.9122581-1.8662872-1.8470535-3.7930374-2.4648018-5.7842712-.6025963-1.9423904-1.4605484-4.1995544-1.6528664-6.2050858-.0794563-.8285828-.0908585-1.5683517-.2660332-2.4006958-.3833733-1.82164-1.0357132-3.4869537-1.6286888-5.2336884-.3124256-.9203186-.3414154-1.3722153-.4571476-2.316246-.285656-2.3300705-.9286823-4.1011505-1.6404991-6.2885666-.6987343-2.1472168-1.131815-4.2454453-1.4433002-6.4857635-.0786381-.5656052-.090107-1.1748199-.1876831-1.7323608-.0583344-.333313-.1954002-.6263847-.2394657-.9694519-.1408768-1.0967674-.1517735-2.2628326-.2935658-3.3687401-.1626225-1.2683716-.6289177-2.9773445-.4894981-4.2319946.022171-.1995277.1275845-.4173965.1643047-.6179352.2492809-1.3613968.5082188-2.741806,1.0701408-4.0144157.5288677-1.1977501,1.249939-2.794651,2.263279-3.6390762.6069927-.5058136,1.80826-.6711617,2.4972515-.2555466.1875076.1131096.3075867.3586807.4374046.4515038.1030846.0737076.2702446.0499115.3569374.1408501.0665016.0697594.051651.1610947.0896034.2304039.0496063.0905914.1939163.2777405.2723045.4047279.0371437.0601768.1227303.0819359.1493187.1677475.0378494.1221581.0010719.2367249.0379295.3543472.3509483-.4869995.8364906-.8878479,1.3223305-1.2377243.5977287-.4304543,1.0739937-.6744118,1.7890892-.877636,1.7600861-.5002022,3.4943848-.8141785,5.3054848-.3277512.5016174.1347237,1.3677788.5691261,1.7960777.6232605.1031227.0130348.3564835-.1408577.4288406.1030388.0607719.2048531-.2724686.7878876-.4044037.9673233-.4596062.6250687-2.2356453,2.1502762-2.987606,2.2391853-.2947655.0348549-.5997162.026783-.8134995-.1990051-.6322556.1963005-1.4408798.7496109-2.1182137.6139145-.2177773-.0436287-.4440117-.2460976-.6863441-.2619095-.2859459.2346878-.485157.5564346-.7728996.7894821-.4589882.3717422-.9083481.4763908-1.4915085.3608856-.3627739-.0718536-.4928513-.4429588-.8743286-.4451942-.0906258-.0005302-.2373581.1427727-.2704735.2213974-.0552406.1311531-.1122398.7791824-.1331596.9690857-.0638199.5793991-.0688171,1.0484505-.2163277,1.6326027-.1656799.6561012-.2459831,1.1047478-.36409,1.7692909-.2573051,1.447773-.5960846,2.8842735-1.0022507,4.2956429-.1745682.6065941-.5553703,1.4422951-.6184311,2.0482941-.2392006,2.2987099-.3484001,4.6720695-.0799065,6.9703865.2610931,2.2349701.8955803,4.4052048,1.3674507,6.5971756.4278374,1.9874344.8714714,3.9796219,1.4726601,5.9230652.2944946.9520035.711834,1.8497314,1.0145187,2.7900162.3536491,1.0986099.6877022,2.3812485.9756546,3.5044479.6963921,2.7163773.8289566,5.5790253,1.6721344,8.248085.4485283,1.4197998,1.0647583,2.6803513,1.5649567,4.052948.334137.9169083.6320724,2.4423218,1.3414001,3.1031418,1.1844254,1.1034317,2.3629227,2.2106171,3.521965,3.3404083,1.8146133,1.7688141,3.7038383,3.4080276,5.4041252,5.2983398.1444931.1606445.8711395.9671555.8992233,1.0928345.0881996.3946609-.3333397.27388-.5263786.4721451-.0461273-.0042191-.0975418.0065384-.1422272,0l.0000076-.0000229ZM33.635849,48.3318291c-.0079575-.0137939-.2100487-.1357079-.2597961-.184269-.2896881-.2827721-.2599106-.4195328-.7462845-.4626808-.8784103-.0779305-1.3205643.3024635-1.8290844.9431686-.084938.1070175-.7622852,1.1005592-.7122593,1.1540871.0965786-.0609818.1824722-.0867577.2992477-.0696907.1405849.020546.2263565.2035217.3202248.1755257.0754566-.0225029.1184673-.4788933.4676876-.4949989.2332478-.0107574.2904892.1831093.3580208.2058983.0737953.0249023.1833363-.007515.2718601.0125961.0714283.0162277.1169186.0923767.1860695.0986557.0138779.0012589.2226295-.0080223.2321014-.0147667.0621872-.0443001.0889549-.5432091.3756294-.6908722.2657852-.1369057.3565521.067173.4574203.0660362.066143-.0007439.4866791-.2188568.536602-.2810326.058918-.0733757.0804329-.3919868.0425606-.4576569Z"/>
      <path class="st0" d="M25.8568707,77.2316513c.0369511-.1394577.2277203-.444519.2422676-.55867.0105-.0823898-.0433788-.1370773-.0130768-.259613.0292244-.1181793.2046967-.3007278.2183876-.3891907.0091782-.0592957-.0942173-.1111298-.1129532-.1779022-.0217934-.0776672.1249828-.3790436.1682549-.4762421.0276089-.0620193.1370792-.2056808.1365662-.2185516-.0010643-.0266724-.1967239-.0832367-.1718273-.2410812.0069218-.0438919.0753994-.1183929.0656967-.1313629-.0150032-.02005-.1430988-.0011749-.1443367-.1594849-.0011482-.1468964.1763172-.4182053.2049351-.6099854.0079174-.0530624-.0337143-.1162262-.0188923-.1999893.0133419-.0754013.1260834-.1991196.1259136-.2224426-.0002041-.0279388-.069397-.0793915-.0825481-.1235428-.029501-.0990372.2217846-.4276886.2921886-.5303726.1681519-.2452469.5338173-.5935135.6493111-.8085022.1445026-.2689819.1781139-.9816132.5918198-1.0109558.3120003-.0221252.3631535.2622681.5302734.2534714.021225-.0011139.0544395-.1978378.3068352-.1282959.1195107.0329285.045763.086319.0744381.1738815.0182934.0558624.0948067.0310287.104784.111145.0285816.2294846-.1539688.3368301-.1453819.5518417.1334476-.1097641.1912384-.3498459.4064388-.3206253.3078403.0418015-.0239258.4457779-.015934.4800568.0121136.0519714.2411404.0574799.2318802.2355423-.0026588.0511169-.0464325.3102112-.0635967.358017-.0268669.0748291-.1977711.2971344-.1944885.331955.0017395.0184555.0738487.0878525.0797844.0879517.04603.0007324.2172813-.2621384.2559204-.2856674.2963467-.1804886.4121151.3446579.2596893.5348129.2933025-.0003281.1483841.1840363.1407318.372261-.0038795.0954361-.0189762.4641647.0353413.5009232.0352345.0238419.1090679.0084305.1512928.0273361.1521263.0681229.2043667.1659927.2387905.3299408l-.1040916.9378738c.266573-.0145569.2153969.3409042.254118.3870392.0091076.010849.1735897.0347443.2328949.0872726.17346.1536179.0976448.4131012.1179333.6107864.025322.246727.0862617,1.1837692.1622086,1.3311615.5229778,1.0149536.3334484,2.6143265.5947723,3.743103.0444908.1921768.1317406.3151016.1851826.490387.0760975.249588.0902252.6222076.169363.8262177.0365753.0942841.1608124.1998291.2108765.322464.1463814.3585815.2012978.7348633-.0598068,1.0568008-.2157097.2659683-.3628407.1400299-.552187.2300568-.0520248.0247345-.1370945.2043152-.1948299.2674026-.0581398.06353-.2720604.22258-.2848721.2484741-.1009007.2039337-.1456947,1.2533417-.1256962,1.5124817.0053444.0692596.0220623.2171249.0455437.2744675.0267563.0653305.5393715.4104614.6481171.4896851.313488.2283783.7411613.5764313,1.1483574.6324081.2600517.0357437.4563828-.1254272.7527924.0976105.0669975.050415.3913918.5396271.4118385.6190109.0817719.3175354-.102951.5992584-.4018059.7024155-2.1696949.7489166-3.4202652-1.4115448-4.0880318-3.0746689-.2810764-.7000427-.6356468-1.8427277-.684-2.5871811-.0276871-.4262848.0688362-.8630295.145977-1.2753677.0215912-.1154099.1383991-.4786911.1356697-.5386124-.0026283-.0576935-.1373367-.2270737-.1661301-.3282547-.0577145-.2028122-.0054359-.4798737-.0442486-.6233597-.0038452-.0142136-.1491299-.1077499-.1937675-.1698532-.1871738-.2603989-.0701351-.4316101-.1340828-.6478577-.0490246-.1657867-.2111053-.0353775-.3306179-.0248108-.3022251.0267258-.5445251-.163353-.6138401-.4531937-.0181675-.0759735.0052471-.1621399-.0153961-.2334976-.0156364-.0540466-.1056614-.1067505-.1423779-.1776276-.0580082-.1119843-.0468788-.2344971-.0910416-.3356323-.1299877-.2976837-.529953-.5100632-.4352703-.9336548l-.3721447.3230438c-.1737823.0654831-.3354588-.0592728-.2883816-.2521133.0414124-.1696396.6298656-.9878082.5892467-1.0311203-.1304932.2043457-.3757668.0198364-.3903923.0355835-.0063076.0067902-.0086765.1172256-.0540638.17733-.1155052.1529388-.2097721.0339737-.3244591.0113373-.1224022-.0241547-.1685905.0856857-.2618675-.1531525,0,0,0-.0711136.0000057-.0711136Z"/>
      <path class="st0" d="M65.2468109,47.9038048c-.0458984-.0277901-.9002686.2125931-1.0461121.2390518-.3588371.0650978-1.1549683.1876907-1.4905357.1467934-.3704453-.0451469-.3706245-.2803383-.5473137-.4763451-.0765839-.0849571-.0790329.0448494-.1243248.0859947-.1891823.1718674-.8269043.5400391-1.0696449.5673752-.2112617.0237923-.4548531-.027256-.6672249.0083466-.4125824.0691719-.5246811.4133644-1.1466026.3473129-.4061089-.043129-.3129921-.1022568-.7838097-.0377693-.359848.0492897-.5782051-.1242142-.8952942-.1672363-.461071-.0625534-.9712296.4544907-1.4496117.4563713-.5350037.0021019-1.1358986-.3110847-1.2625008-.8561325-.3584671.1595268-.6162491.321785-1.0204506.1853523-.1797104-.0606575-.6499519-.3575172-.7900429-.490036-.0544853-.0515404-.1870804-.2640343-.2036514-.2666588-.2109261-.0334282-.3367882.3234062-.4562263.4652176-.431694.5125618-1.2585907,1.0379143-1.8679237.4803276-.1834145-.1678391-.2612495-.5666237-.3398628-.6201591-.0324287-.0220833-.6901436-.2462425-.7428894-.2526894-.0814934-.0099602-.4654388-.0115852-.5162811.0189629-.3524857.5565605-.6521721,1.0649567-1.267498,1.3636703-.3497887.1698074-.646328.2720261-1.0279694.1490936-.3767128-.1213455-.7341537-.3332138-.7640266-.7648621-.0101814-.1471405.0572853-.5750084.0887413-.7319221.0441055-.2200317.1083565-.3586617.2678185-.5144234.4878464-.476532,1.1407204-.9587173,1.7419167-1.2803726,1.2928696-.6917152,2.6120453-1.3230553,3.9247131-1.9776421,1.7154465-.855442,3.18507-1.7042809,5.1005669-2.1173744,3.0069046-.6484642,7.5835419-.527626,10.2578888,1.1337395.9551697.5933762,1.755722,1.8411293,1.331749,2.9890633-.1984024.5371933-.5591354.7659988-.8390274,1.1876831-.0616074.0928192-.071373.1863747-.1277008.2634201-.0697556.0954208-.5697632.4480591-.6943817.514534-.473938.2528038-.8952789.358593-1.401947.1189728-.1259155-.0595512-.1478271-.1539154-.1705399-.1676712v.0000114Z"/>
      <path class="st0" d="M53.7690163,70.1208267c-.0035858-.0038223.0010643-.0669632-.0209427-.1027222-.0705948-.0328827-.1022186-.2344055-.1746635-.2179108-.0633774.0144272.1004219.3638763.0526085.426857-.1788635-.0192337-.2567406-.3369064-.4603081-.1584396-.1371307.1202164-.0259171.2560577-.0371361.2647705-.0400696.0311279-.2604141-.063942-.3375015-.0710373-.4742432-.043663-.8427238-.0250244-1.3348427-.1229706-1.8165932-.3615341-3.8562431-.947403-5.5447845-1.6731567-.6883469-.2958603-1.5244026-1.1672134-1.2992706-1.9732513.0442848-.1585541.325428-.5861511.3258171-.6213303.0006676-.0602112-.1040344-.174736-.1305237-.2481689-.1068497-.2962189-.1801605-.6076202-.142086-.9262238.0377197-.3156128.6023903-.7913437.8903046-.9230766,2.344429-1.0726776,4.5673904.2061844,6.8536606.6119804.8779793.1558304,1.6065826.1385193,2.4617538.4538574.2688484.0991364.3431587.0504913.6122818.0989532.5489693.0988541.6404953.3163147,1.0470657.5884323.2183533.1461411.5399971.2564468.7407722.3970337.1411705.0988464.6205635.6273499.6749649.7828445.1181412.3376617-.0359039.5978241.0260811.8983841.0616722.2990494.4094086.5395432.4501228.9007187.0573921.5091553-.3662071.6508942-.6334534.9871063.3950157.3807678.5844307.9589462.726368,1.4803391.0496483.1823807.1562233.5219421.1611786.6953278.0160637.5618668.0521393.4522934.1960297.9386139.238533.8061829.2503471,1.7117538.488678,2.4980545.2540398.8381348.3598251,1.0513611.4523735,1.9654617.0578346.5712204.3859406,1.7974854-.4904137,1.8941956-.6085739.0671539-.5725212-.7058945-.6574135-1.1019287-.1295547-.6044083-.2728462-1.1873016-.4264297-1.7780609-.0728455-.2801971-.1529121-.5816422-.200222-.8664703-.0185013-.1113968.0162354-.2352295-.012249-.3433151-.041584-.1577911-.5215874-.7685547-.6486053-1.0580978-.0417976-.0952759-.0705681-.2963333-.1085968-.3536377-.0345078-.0519943-.9642372-.468483-1.1195068-.5516434-.2848282-.1525574-.6334686-.3445511-.899128-.5231247-.1558952-.1047974-.7487335-.5363235-.8420219-.6513443-.0650482-.0802002-.0582199-.3626251-.0874481-.4814529-.0550117-.223671-.2356224-.9272842-.3315964-1.0904846-.0942268-.1602249-.2094002-.032814-.2209167-.0450821Z"/>
      <path class="st0" d="M95.3369141,54.5139694c-.0459824.0492783.0838013.2869377-.2350616.2824478-.1040344-.0014648-.5825806-.3513031-.6567764-.4452744-.4194489-.5312386-.9587784-1.4972343-1.0268097-2.1732597-.0382919-.3805389.0340729-.7687492.0275116-1.14748-.2365341-.0733757-.4811325-.1091385-.7161102-.1906357-.2750168-.0953827-.6366653-.3524284-.8703842-.4096451-.1481323-.0362625-.3702393-.0197487-.5216904-.0472107-.6670303-.1209602-1.6898804-.3613205-2.2070465-.8152466-.098732-.0866623-.2923279-.3802338-.3389587-.4077263-.0607529-.0358238-.1706467-.0095062-.2511444-.0333061-.4736404-.1400146-1.3327332-.4629173-1.6515121-.837429-.0843124-.0990524-.258873-.4351006-.3592453-.4542847-.0393448-.0075226-.1399155.0306511-.208725.0304184-.2905731-.0009804-.2063828.0150146-.4514542.0790367-.3828964.100029-1.3801346-.2426338-1.6914444-.4999084-.2029495-.1677208-.1005402-.2238846-.1226883-.407692-.0116196-.0964127-.0690308-.1603012-.0665207-.2945404.0020981-.1122894.0407257-.2365952.0937424-.3357391.1505356-.281517,1.2121582-.9562073,1.5346222-1.0609856.3496933-.1136246.6134872-.0712967.9475327-.1191597.7492752-.107357,1.2481003-.2036324,2.0327682-.1746521,1.484436.054821,2.8461227.0588417,4.2749557.5251541,1.3864899.4524918,2.8141174.9946518,3.9361649,1.9306374,1.3358688,1.1143532,2.6795349,2.0814667,2.0015488,4.0263901-.4681168,1.3428802-.8248978,1.8349609-2.0887375,2.4980278-.2290726.120182-.7179184.3994675-.9459381.4407616-.0728073.0131836-.4055405.0058861-.4385986.0413017Z"/>
      <path class="st0" d="M64.7839508,99.3227692c.8943863-.062439,1.641243.4785919,2.4689102.7454376.7894287.2545166,1.4997253.1970673,2.2465668.4201584.5529861.165184.9093323.3697281,1.1634674.8987579.0454788.0946732.1313019.0696335.0860443.2367096-.0351028.1295929-.3004684.383728-.4106674.4799042-.3859482.3368683-.9299774.7294769-1.4448395.7952118-.1475525.018837-.2869644-.0071411-.441803.0204315-.3610687.0642929-.5890961.3060989-.8988571.4522858-.2749634.1297607-1.345192.3774033-1.6435547.3859787-.2013245.0057907-.4539719-.1110077-.6750031-.0907288-.1814499.0166473-.485733.2076721-.7096176.2322083-.8465004.0927811-1.9429245-.1103897-2.748848-.3805237-.369175-.1237411-.7663841-.4608612-1.1542511-.3934174-.1757812.0305634-.3892136.1773071-.5800972.2016525-.395134.0503845-1.261734-.3576736-1.4434891-.7193756-.2102127-.418335-.149189-.776474.0981483-1.1590195.1781006-.2754669.4055748-.3134842.7107658-.3914795,1.2347755-.3155746,2.651001-.3998108,3.665062-1.2061615.3860588-.3069839,1.2214851-.493782,1.7120628-.5280304Z"/>
      <path class="st0" d="M69.0324097,92.7091904c-.1042862.0830612-.2411804.274147-.3842545.3798141-.5850754.4320984-1.0450287.3859863-1.661644.6139603-.2476273.0915527-.3440857.2315292-.5483322.3405762-.2811508.1501083-.5101776.0963974-.8017349.158287-.4582748.0972672-1.1903915.8856583-1.6297531,1.1791992-.2122574.1418076-.4273872.1663208-.6277657.2611465-.1886635.0892792-.3277893.3360367-.5603065.3641663-.3500366.0423508-.799202-.0872726-1.0496292-.3389206-.4081879-.4101868-.6431618-.7090836-1.1616631-1.0428314-.7222404-.4648972-1.4835091-.5619202-1.5419388-1.6222687-.0243111-.4412079.2039833-.5508804.5181732-.799942.6636887-.526123,1.2468491-.8800659,2.123848-.5623474.2491989.0902786.3622131.270752.533802.3550339.1747475.0858307.5330353.0636673.7712097.1533356.1808434.0680771.3678513.2019958.5151253.3237.387928-.068718.8574104-.2171936,1.2460594-.2350159.190155-.0087204.3958359.0602798.5606308.0268021.0912933-.0185471.2117615-.1145782.3114471-.1506271,1.0806732-.3907928,2.4358597-.9033661,3.4627304-.12854.1111603-.0403137.2298737-.0240021.3426895-.0483322.2709732-.0584488,1.0564575-.5033035,1.1305923.0422745.0221863.1632767-.5194855.473465-.6714859.5234756-.2291031.075386-.7095032.0730286-.8778.2070694v-.0000153Z"/>
      <path class="st0" d="M76.338913,44.5296097c1.2357559-.1224098,4.0941315.1606712,3.7183838,2.0116692-.0718384.3538971-.760376,1.2129364-1.0901794,1.3632126-.5810471.2647552-1.1525421.0669365-1.7505722.0983467-.2881088.0151329-.5700989.118782-.8524399.1431465-.3940506.0340042-.6924362-.0650215-1.0665894-.1056252-.5992889-.0650291-1.3955917-.0350266-1.8832397-.4279213-.2483139-.2000618-.5795898-.6166115-.7446518-.8911705-.0740662-.1231956-.0387726-.2694016.0341187-.3867531.0407639-.0656319.4029312-.4481964.4778671-.5176773.5698471-.5283813,2.3803558-1.2102661,3.1573181-1.2872276h-.0000153Z"/>
      <path class="st0" d="M59.3070793,84.1387711c.2031212-.0256271.4267464.0844574.5604591.2387009.0954628.1101151.3044472.6522751.2941208.7908401-.0135117.1813278-.1795502.4646225-.1733856.6138458.0051651.1250076.1476059.3512802.1705704.5440903.0667839.5607071-.1530533.7555466-.3202171,1.2244186-.1289444.3616638-.2839699.9814224-.3112602,1.3598862-.0470085.6519547.1442757,1.7503738-.4431419,2.1880264-.3122826.232666-.5776672.1899872-.9355927.0823517-.2273026-.0683517-.2925568-.1495056-.3925629-.3541183-.3478241-.7116699-.2147827-1.2401123-.181469-1.9845352.0747757-1.6708832.0664101-2.4310837.9169121-3.9187546.1781197-.3115616.4214363-.7350311.815567-.7847519Z"/>
      <path class="st0" d="M96.5747833,57.3610611c.0110016.0089607-.0106201.0645294.0209808.0658951.0414124-.0653725.1610947-.0720253.1993866-.1212807.0655746-.0843468-.0002365-.2461319.1473007-.3146744.276825-.1286087.3746185.0876884.4091415.3204231.0641708.4326172.1994934.8242912.2239151,1.2694511.0692139,1.261692.1029816,2.5441132.1393127,3.8074799.0080414.2795906.0939789.809639-.0065613,1.0571251-.0219803.0541039-.0919952.0825272-.0989227.1506157-.0251389.2469101.2163925.7129173.2145844.9606819-.0018921.2603378-.3054199.3663101-.4795227.1575775-.0887909-.1064529-.3030396-.644455-.3664856-.8068848-.6896973-1.7656975-.8317566-3.4407463-.6835327-5.324749.0164566-.209137.0812149-1.0876312.1936646-1.1930161.0236664-.0221786.0526428-.056427.0867386-.0286446Z"/>
      <path class="st0" d="M82.8273468,42.9462051c.0270691.0227127.1199265.0303192.1710358.0597763.1616135.0931587.1591721.2053146.1239243.3781776-.0392761.1926537-.4291153.9568291-.5469513,1.1595268-.3028641.5209694-.7470398,1.0588799-1.2853928,1.3457794-.1745377.0930176-.7303085.3211899-.9038925.3005371-.1539078-.0183105-.2665024-.3084679-.2726822-.4439468-.0087967-.1926918.1562195-.3759003.1734009-.5050011.0227432-.1708679-.0794907-.5359688-.0634232-.6646309.0048523-.0388451.293129-.6853104.3182602-.7153206.0578995-.0691414.1837692-.1230888.2728271-.1227264.0788498.0003204.1220322.0711288.1550674.0553284.0537415-.0257034.3452225-.5206375.4438248-.6253777.0999908-.1062126.2397232-.2149773.3543701-.3208046.3032761-.2799377.3492508-.0516968.4930267-.0768509.0790405-.0138283.1021271-.127861.2817764-.0930138.2247238.0435905.2116089.207119.2848282.2685471Z"/>
    </g>
  </g>
  <g class="st1">
    <path d="M126.8636322,60.3207664c-1.2646027,1.5355568-2.6861343,2.9333916-4.0188599,4.4079933-3.0296707,3.3521957-4.9251251,5.8344116-8.9469452,8.1912155-2.0534897,1.2033539-7.1493378,4.0354233-9.1154022,1.6951675-1.2991943-1.546463.5220947-3.7323761,1.1639557-5.2376251,1.761734-4.1315536.6922836-9.601265.4375381-13.9998169-.3426132-5.9158325-.9636765-16.6519699,2.430687-21.6750412.9249344-1.3687477,2.1168213-2.153635,3.5405197-2.9307346,1.2740402-.6954136,2.6625366-1.3545914,4.0098724-1.8890343l1.6752167,2.7369671c-1.5498734,1.1947098-3.5776367,1.6688919-5.207695,2.6873055-2.7916183,1.7441139-2.4965591,4.7331123-2.751915,7.6305389-.1012573,1.1489182-.3961868,2.2823868-.2833023,3.4493828,1.3187408-1.1023636,2.8788376-1.8540611,4.4313049-2.572567,1.1803589-.5462875,2.499054-1.1604042,3.7460785-1.5162582.5653229-.1613235,1.1579285-.2105331,1.7063141-.4270668l.9949722-4.5152321c.4966507,1.1425552,1.0510025,2.2630119,1.5275192,3.4155045.2447815.5920219,1.1202621,2.5885391,1.1062698,3.0873833-.0081482.2904396-.2320786.9013672-.1943588,1.1315994.0123825.0755844.7216873,1.0572853.8447876,1.277813,1.3606644,2.4375,2.1529694,6.9574738,1.199501,9.6151543-.758255,2.1135445-2.0522079.7245979-2.5644913-.6411057-.6519775-1.7381325-.2312241-4.3816757-.9580917-5.7976112-.0567398-.110527-.0882263-.2400742-.2487717-.2127342-.4281693,1.5586967-.8405609,3.1487885-1.4213562,4.6588058-.3756866.9767609-.89991,1.8144493-1.276413,2.7795792-.0835724.3925781.2253189.6372604.3633041.9754944.7140427,1.7503128.3351669,3.8010559.2688904,5.6276016-.0193176.5323334.0198822,1.07061.0033112,1.6026154.1626129.1815948,1.1515503-1.0667953,1.2782135-1.1744423l5.7263336-7.7850838c.2687302,1.3900795.443428,2.8189507.4589844,4.2365875l.0740356.172081v.9955788l-.0000076-.0000153ZM119.3964233,43.6807518c-.1781387-.1832352-3.4563446,1.9242058-3.8630905,2.1451988-1.7186966.933815-3.7105637,1.6373711-5.6617966,1.840313l.4946671,11.9430199,1.4916382-1.6006851c.8363266-.8981171,2.1125946-1.1110687,2.7152786-2.1914978,1.1123276-1.9940605,1.8944092-4.9684639,2.799202-7.1565781.2352371-.568882,2.2334061-4.7644768,2.0241013-4.9797707ZM115.5570145,61.0316925c-.3634796.0256004-.8418961-.0121231-1.135849-.250988-.220726-.1793633-.1402664-.4424553-.5259171-.2367325-.1283188.0684509-1.0787048.7987137-1.2129288.9202728-.7279053.6592407-1.3891678,1.9851379-2.1362152,2.6994438.0538559,2.0624847-.1745377,3.7896423-1.2611694,5.5656509-.3930588.6424179-1.0130234,1.2639542-1.3492126,1.9219742-.1153641.2257996-.2457047.4163361-.2012634.6873703.1578827.1576538,1.8304214-.691658,2.1099396-.8409653,1.7784348-.9499664,3.8110428-2.4428482,5.4502335-3.6521912.2160339-.1593857.4979706-.3450165.6896057-.51931,1.1554947-1.0509186.1970978-1.2512665-.1980667-2.2925797-.4595642-1.2110214-.3027802-2.7355232-.2291565-4.0019455Z"/>
    <path d="M1.1363676,67.2898102c1.1610131-.680191,1.7929995-1.8477631,3.3061306-1.776619,2.3041391.1083374,1.4252496,1.685791,1.124012,3.1133575-.3810649,1.8058701-.2777181,4.1003189-.1626592,5.9515915.1735625,2.7925797.5902467,5.5715866,1.1522431,8.3057327l.0914459.1204529c.7978387-.6093826.7186775.2616425.5533986.8391418-.2486539.8688278-.3213668.5983582-.301548,1.6126785.0171599.8782425-.020915,1.7585602.0000386,2.6370621l-.1459594,1.8811188-.2963405-.5202179c-2.1225319-5.045723-3.9736588-10.5605927-4.6689458-16.0248566-.1160623-.9121323-.2211691-1.8090439-.0836339-2.7260284l-.2833568.1418533-.1436487-2.1673889-.1411766-.6056519v-.7822418.0000153Z"/>
    <path d="M17.6345158,106.5440292l-3.3417397-3.9476776.0346518-.1054001c.1933384.1214142,1.0394602,1.2085648,1.1381502,1.2085648h1.1022472c-.4242764-.8517227-1.2516069-1.4972458-1.3515482-2.4891205l-1.5667782.4620285-1.4175835-1.9203568c2.7273798-1.4543991,5.813386-2.032402,8.7445059-2.9501495-.0214748.7426071-.3027344,1.6296616-.6739655,2.2764816-.3397694.5920029-.5321026.55336-1.1376743.7823715-.5653477.2137909-1.1638775.3962402-1.7437096.5682373-.0795574.0842361.3025227.3242874.392046.4253845.6533089.7377701,1.4009666,1.8578415,1.9132061,2.7089157.1582298.2628937.4800453.6262665.3260555.9178085l.4252205.1073227c-.2533436.1418762-.3454456.2406845-.495842.4613342.2094059.0836792.4964542.1100845.6919441.1973419.0750561.0335007.1824818.0655365.0898533.1583939-.0743351.0745163-1.2630253.0810013-1.5656796.1773834-.4211521.1341095-.4680634.5064087-.784584.7088165-.1889534.1208344-.39888.1161346-.5654373.252327,0,0-.2133389,0-.2133389-.0000076Z"/>
    <path d="M66.5600586,1.0127699c-.7257996,1.550873-1.228508,3.2050817-1.5419846,4.8937118-.1076889.5800953-.4510498,2.4930344-.2954636,2.9527693.0480118.1418772.3102798.1284075.2726135.3311081-1.0247269-.1322098-2.0330734.0054102-3.0578575.0007401.0497589-2.7772331.6735268-5.5203123,1.4226227-8.1783295,0,0,3.2000694,0,3.2000694.0000002Z"/>
    <path d="M61.4399414,1.0127699c-.1428413.8900952-.5813713,1.954953-1.5467949,2.1866217-.3190231.0765545-1.072506.1457641-1.3719482.0565929-.1548996-.046128-.3379478-.2477889-.5282288-.3251672-.6246872-.2540324-1.3152618-.3550255-1.9348602-.6251984-.1228218-.0535567-.9161491-.4676441-.9467888-.511884-.0309334-.0446627.012291-.1434423.0694122-.1778026,1.9467087-.2610734,3.9073105-.493103,5.8738098-.5291193l.1720581-.0740433h.2133408Z"/>
    <path d="M14.7188969,60.8889732c.6249847-.051506,1.020956.5064507,1.4201164.8917427l.9969864,1.3130951c-.151289-1.5038185-.0423927-3.1458778.2365589-4.6350365.2027225-1.0822182.5709953-2.587738,1.6355629-3.1290245,1.4932308-.759243,1.6069775,1.5889587,1.5408688,2.5364838-.017498.2508049-.1240997.5347748-.1398964.784565-.1400623,2.2147827-.0664463,4.439827.1415405,6.6476784.1137505.1026077,1.1718884-.9459534,1.3170223-1.0645752,1.3127842-1.0729713,4.1373177-3.2641487,5.8169365-1.9807205.3632622.2775764.5294304.5606995.3480377,1.0346947-.3956223,1.0337944-2.7173996,2.2720833-3.6363392,2.9768715-1.2871323.9871826-2.2688274,2.3537216-3.7067547,3.1349564-.0340271,3.246048.1158905,6.4972916.6771221,9.696106.0872936.1169586.1063843.0335693.1778202-.038063.7330399-.7350388,1.9115639-2.612381,2.7248268-3.0353775.6053295-.3148422,1.2111244-.0312729,1.3106747.6373138.1538734,1.0334396-.9352512,2.9896317-1.461956,3.9048996-.5282173.9178925-1.1667824,1.7674561-1.7058601,2.6777039.8202076,1.8318634,2.4290257,3.6585846,2.9226418,5.6101227.4336281,1.7143707-1.1798744,1.6317749-2.3226566,1.1137314-3.0177917-1.3680267-5.8505859-6.9936218-6.5947227-10.1167603-1.5135527-1.207222-2.9807148-2.5125809-3.9863319-4.1916275l-.7693253-1.6829834c-.0432158,3.4138107,1.7809896,6.6930313,3.5253754,9.522728,1.8701687,3.0337372,3.8002148,5.6174774,6.8046074,7.6312714.9635563.6458588,2.9118233,1.4889374,3.6058559,2.2965088.6014805.6998749.0424404.7297745-.5667171.4607697l.0701103.3551102c-.4647369-.15625-.4386387.2543259-.7086716.3264008-.2110977.0563431-3.0068035-.9836502-3.3923244-1.1670151-3.5345173-1.6811142-8.057023-7.4423981-9.9912024-10.8448181-5.3272786-9.3712387-2.7423668-19.2650108,3.1254616-27.6196899,1.3829451-1.9690514,5.2357798-6.4865036,7.8784037-6.2107735.3161049.0329819.2894268.1587486.4361019.203331.3151093.0957794.7057533-.0979652,1.0188637.261219.4595394.5271606-.1606064,1.0499077-.5371437,1.3865967-1.1088676.9915237-2.2036972,1.6192589-3.270256,2.7743225-2.0555515,2.2261238-3.5923595,4.8401604-4.9413376,7.5382423ZM16.2826366,75.6096573c-.229435-1.9213867-.1199551-3.8634262-.1385555-5.7982788-.0064487-.6707687-.1114349-1.3503647-.0729046-2.0581894.0152245-.2796936.172718-.6504822.1403446-.9189758-.0302334-.2507477-.6863546-.9632263-.8646135-1.2746658-.4102345-.7167206-.651473-1.5930099-.8913813-2.3798027l-.2336292-1.4362984c-1.211256,3.2696762-2.5325718,6.6100235-2.4890413,10.1686478,1.5963221-.3312836,2.6859999,1.2155762,3.6244326,2.2417068,0,0,.9253483,1.4558487.9253483,1.4558563Z"/>
    <path d="M17.0653419,22.2038574c.1678314,1.0839481.4179497,2.1566219.5590782,3.2462234.144268,1.1138344.2569447,2.278265.2974796,3.4003811.1215324,3.3643246.1425896,7.3151493,0,10.6727695-.1000957,2.3569946-.5168591,4.8112106-1.281599,7.0385895-1.3797216,4.0185738-2.7681866,4.9812431-6.4665308,2.2681541-2.0127697-1.4765587-3.6765518-3.4312859-5.70117-4.8970222l-.0619307-.1423721,1.3117046-3.5229301c2.5956879,1.8986168,4.8539219,4.1939201,7.1120338,6.4709969.0618706.0811348.0833445.0888367.142704.0001678.1739159-.2597923.3721542-1.3963814.4393606-1.7652283.5923481-3.2510033.6886091-7.2962875.8750229-10.645237.1211767-2.1769714.3811302-4.839035.2881727-6.9712601-.0116301-.2667599-.0765228-.9586678-.14499-1.190176-.037262-.1259937-.5936031-.1502514-.5684376-.2283897.702755-.9255371,1.4106741-1.8576031,2.1670408-2.7397861.2157784-.2516708.5989742-.7568989.8158436-.9463558.0799847-.0698757.1177006-.0526943.216217-.0485249Z"/>
    <path d="M106.5968857,81.5838242c-.0729218.8544159.3735657,1.7375565-.501503,2.3074646-.562767.3665161-1.5116119.1799088-1.6276779-.570137-.1568298-1.0134964.0724411-2.7145081.7412262-3.5163727,1.6633377-1.9943237,5.5419617-2.6819382,7.86203-1.5312424.312088.1547852,1.049408.781662,1.2447052.8175583.4979248.0915146,1.5541763-.0552826,2.1333389-.0710602.4347763-.0118408.759285.0868073,1.2574539-.0157928.5428009-.1117935.3943253-.3477478.7399292-.5400314.4883728-.2717209,1.216423-.0660629,1.3018723.5287094.0927963.6459198-.3916016,1.4431534-.9923248,1.7008057-.3273392.1403961-1.2257385.2677689-1.4192734.429657-.1622925.1357574-.3619308.8272552-.6039963,1.1027069-.3595963.4091949-.9969711.4558258-1.2497559.7414017-.1118851.1264038-.134903.3241653-.2368774.4742508-1.9507523,2.8710785-4.3468933,4.5698624-7.9982529,3.7839432-.9573975-.2060699-3.1628799-1.1291885-2.1440964-2.4060364.3482056-.436409.6878891-.2071228.9939651-.4282837.1249695-.0903015.1881561-.2818451.3179703-.393158.7999191-.6859055.9209824-.493721.571701-1.7032928-.0196228-.0679474-.2367706-.8879471-.3904419-.7110748l.0000076-.0000153ZM109.5832443,80.4456635h-1.3511429v1.528923c0,.0836258.1505814.5327225.248909.532074.1843033-.0012131,1.2834396-1.8773041,1.1022339-2.060997ZM114.7031937,81.1559372c-.1230011-.2112427-.4746857-.2138596-.6980057-.260994-.4073334-.085968-1.543663-.3018646-1.8959198-.2337799-.2383652.0460739-.806572.9151001-.67659,1.0643005l3.2705154-.5695267ZM112.5696335,83.0772247c-.080513-.0755386-1.872345.531662-2.1183319.6211853-.0689163.0250778-.2122116-.0146484-.1562958.124115.0645676.1602325,1.0665436.781189,1.2301331.7392883.196373-.050293.6623688-1.0584259.9324493-1.2062149,0,0,.1120453-.2783661.1120453-.2783737ZM109.6539917,85.2806244c.0840836-.1162415-.598381-.5652008-.7100449-.6393051.085228.4841156.1166458.8937454.7100449.6393051ZM107.6628723,85.3520432c-.1971817-.9617386-.7690201-.1825333-.2903824-.0307846.0943069.0298996.1923904.0375214.2903824.0307846Z"/>
    <path d="M122.6679382,84.4275818c.2188873-.0869217.734848.3051224.7678909.4720764.0121994.0616226-.3034515.8848267-.3589706,1.0394287-.3259125.9075089-.7125854,1.795639-1.0844193,2.6846695-.1993942.2475815-.2662659-.5476608-.3902435-.568512-.2510452.766777-.2145309,1.682785-.4434204,2.4370117-.2198639.7245026-.8603973,1.8336868-1.2271118,2.5418625-.4457321.8607712-.9568176,1.6906967-1.3895645,2.557991l-.1412735-.035202c-.3364944-4.4878159-.183876-9.164505,1.6945724-13.3104172.616684-1.361084,1.4325562-2.6289139,2.0647659-3.9798126.9971619-2.1307297,1.7816925-3.9627762,3.0382614-5.9930496.4665909-.7538834.9526749-1.5408554,1.5222702-2.2104187-.0810471,1.0540314-.2119751,2.107338-.3666992,3.1526489-.2065277,1.3952332-.4638519,3.3562012-.8754807,4.6713104-.3521576,1.1250916-1.1956329,2.5106277-1.6852264,3.6482239-.408577.9493408-.777565,1.9192581-1.125351,2.8921738v.0000153Z"/>
    <path d="M35.4127464,18.9344845c.0393066.0541935-.3522568.3821697-.477272.4103794-.4918823.1109943-1.8689384-.0116882-2.3817482-.1483746-.1293755-.0344849-.5713005-.2154293-.6294136-.3129177-.199028-2.7805614-1.2840099-5.4035711-1.3871994-8.1983604l3.5604897-2.1327419.2836037,4.1935482c1.0363998-1.1087704,2.1483421-2.3610516,3.4549866-3.1584969.2628784-.1604357.5672073-.2483902.8139992-.3949184.5905266-.3506184.997345-1.0094042,1.769352-.9208612.4753342.0545168,1.3301201.5256109,1.0283585,1.0875845-1.6141586,1.7173634-3.5924301,3.297718-4.8558578,5.313077-.4106827.6551008-.714283,1.4875116-1.1915321,2.0796537-.1290779.1601543-.4961929.4283295-.52491.4750137-.0442924.0719967.2609215,1.5495872.3561668,1.6404877.0574646.054842.1753159.0591164.1809769.066927Z"/>
    <path d="M44.5929146,4.0773921l3.3707123-.9359932c1.1807289,2.4241104,1.9920692,5.0324559,2.2879372,7.7251821l-.0433731.0648775c-.2511139.2275305-1.6631584.5623064-2.039917.5968437-.275486.0252533-1.4613762.0713778-1.5963707-.0920382-.3879089-2.0613785-.7783432-4.0010905-1.4866409-5.9801927-.0803261-.2244434-.5737801-1.2632384-.4923477-1.3786793Z"/>
    <path d="M101.4975891,13.4359684c.0716705.0528412.2059402.0411968.2875595.1022015.1792679.1339922,1.2891846.9473295,1.3264694,1.0223045.062706.1260834-.2757797.191781-.3542862.2136755-.2491379.0694799-.5233078.112608-.7831421.1062946-.0200424.0135393.0372696.0918379.0698853.1071873.0739746.0348196.8552475.1627111.961647.161541.1879272-.0020666.4148407-.1243534.5792847-.1243095.2545624.0000677,1.0211639.7951832,1.2739334.9926558-1.1934738,1.9919987-3.937355,1.4372978-5.5672302.3002262-2.0428162-1.4251585-2.2293472-4.0435705-2.7928391-6.2732973.0488968-.0518827.5417099.2705593.6336899.3256006,1.5606155.9338741,2.9312134,2.0088015,4.3650284,3.0659199ZM101.2627029,13.4582157c-.5545044.0198298-1.0976639-.0010166-1.63517-.1422825.4790726.6172199.460495.8228722,1.1566849.2672377,0,0,.4784927-.1249552.4784851-.1249552Z"/>
    <path d="M70.2586288,7.9106841c-.0347137-.2126222.1500015-.3367262.283165-.4627872.3974075-.3761997.9664993-.6731834,1.3837814-1.0340495l1.4706345-4.680377c.3490906-.0132272,2.7902527.3658719,2.8767471.4833128.0537338.0729625.0266418.1559799.0159683.2355976-.0581741.433804-.4045181,1.2547102-.5351028,1.7451279-.2622147.9847655-.4844818,1.981092-.7264862,2.9710779.4678345.5263438.6976166,1.2145586,1.2430649,1.6669102.1006927.1954117-.2308731.3121948-.3758774.3383694-.8523407.1538591-2.5856094-.4742327-3.397583-.8354607-.2230911-.099246-.8714066-.537775-1.0104828-.5595407-.1775055-.027781-.2970734.1433325-.4005585.1223044-.0969238-.0196953-.1351242-.1918201-.2803192-.1906838-.1022186.0008001-.5292969.2233586-.5469513.2001987Z"/>
    <path d="M22.6580734,16.5209732c.1610928-.0298843.4734249.595211.5958977.7394981,1.0970631,1.2924709,3.3276405,2.298748,4.8798542,3.0136566.1889.0870018.8956661.2864399.9513702.3283367.3687878.2773857-.3731155,1.0702534-.606039,1.2462826-.4421616.3341637-.9915142.5050793-1.5475845.4097004-.4325924-.0741997-2.2176533-.9357471-2.7316589-1.1793652-1.3996105-.6633587-2.6225739-1.4242897-3.6484871-2.6081429.3299122-.2743244,1.8347263-1.8995228,2.1066475-1.9499664Z"/>
    <path d="M86.1708527,5.0112681c.0960312.096293.2778931,1.5486012.300209,1.7977395.0932159,1.0405521.0713959,2.0862789.0683823,3.1312284-.0006409.2235441.130394.321187-.0044937.5563755-.3894424.6790371-2.0687256.1012974-2.3955002-.5026388-.0675888-1.9638805-.1443405-3.9333324-.5831223-5.8518395,0,0,2.6145248.8691354,2.6145248.8691349Z"/>
    <path d="M78.5781174,2.7201948c.9263153.1661172,1.8477631.4038174,2.7360764.712157.4039459.9145849,1.0134659,1.8376596,1.3517227,2.7728083.1816406.5021605.4589615,1.1712284-.3506393,1.1383848-.9501038-.0385432-1.6610794-.4880896-2.1384125-1.2805028-.6173706-1.0248919-1.0514908-2.2727392-1.5987473-3.3428473Z"/>
    <path d="M71.0398178,1.3686916c.0333786.1365051-.0499344.136887-.1192627.2000589-.5995865.5463203-2.2187653,1.5959789-2.9603806,1.9463812-3.0047684,1.4197118-2.2554092-1.3063538-.6388474-2.4166994,1.2455597-.0093367,2.4804001.1756167,3.7184906.2702593Z"/>
  </g>
  <path d="M18.70665,112.6410136c-9.0323681-6.2700101-13.5468696-15.1316833-13.5468696-26.5831003,0-11.4504573,4.5145015-20.2428896,13.5468696-26.3777876,9.0309259-6.1348944,20.6689059-9.2021016,34.915383-9.2021016h33.8426541c0-7.974544-1.6713639-13.5295603-5.0102385-16.6650452-3.3408012-3.1345234-9.1857547-4.7034672-17.5353439-4.7034672s-14.2108933,2.0627561-17.5848719,6.1858617c-3.3739749,4.1245488-7.5143908,6.1853819-12.422211,6.1853819h-15.2340979c-1.8401313,0-3.3581078-.5957452-4.5496018-1.7891621-1.1934169-1.191494-1.7891639-2.6743683-1.7891639-4.447667.0000009-19.5615529,18.5724927-29.3430528,55.7213257-29.3430528,16.2212389,0,29.242085,3.6292953,39.0567585,10.8888482,9.8146809,7.2590713,14.7229773,18.4897883,14.7229773,33.6883061v63.2881288c0,1.8396533-.5789148,3.3398342-1.7386782,4.4986307-1.1597561,1.1597561-2.6580177,1.7377186-4.4986307,1.7377186h-19.7312891c-1.840613,0-3.3408012-.596225-4.4986307-1.7896419-1.1597561-1.1914903-1.7386782-2.6734087-1.7386782-4.4467074v-3.1696255c-10.7705675,7.7028767-23.1932546,11.5350819-37.2675964,11.502388-14.0757812-.0355801-25.6291348-3.1859688-34.6600662-9.4579055ZM44.7781498,77.1635463c-2.7604397,2.317593-4.1404159,5.3160428-4.1404159,8.9972688,0,3.6802663,1.4314271,6.7142963,4.2938015,9.0992035,2.8628542,2.3868339,6.9176823,3.5783242,12.1668906,3.5783242,10.49649,0,20.6189018-3.0667238,30.366261-9.202098v-15.9490881h-31.3885023c-4.7717448,0-8.5371155,1.1597561-11.298035,3.4763895Z"/>
</svg>