<?xml version="1.0" encoding="UTF-8"?>
<svg id="Layer_1" xmlns="http://www.w3.org/2000/svg" version="1.1" viewBox="0 0 512 512">
  <!-- Generator: Adobe Illustrator 29.1.0, SVG Export Plug-In . SVG Version: 2.1.0 Build 142)  -->
  <path d="M507.8,255.5c0,15.7-13.1,28.1-28,28.1h-28l.6,140.1c0,2.4-.2,4.7-.4,7.1v14.2c0,19.3-15.7,35-35,35h-14c-1,0-1.9,0-2.9,0-1.2,0-2.4,0-3.7,0h-28.4c0,0-21,0-21,0-19.3,0-35-15.7-35-35v-77c0-15.5-12.5-28-28-28h-56c-15.5,0-28,12.5-28,28v77c0,19.3-15.7,35-35,35h-48.9c-1.3,0-2.6,0-3.9-.2-1,0-2.1.2-3.1.2h-14c-19.3,0-35-15.7-35-35v-98c0-.8,0-1.7,0-2.4v-61h-28c-15.7,0-28-12.2-28-28.1s2.6-14.9,8.7-21L237.1,39c6.1-6.1,13.1-7,19.2-7s13.1,1.7,18.4,6.1l223.4,196.4c7,6.1,10.5,13.1,9.6,21Z"/>
</svg>