<?xml version="1.0" encoding="UTF-8"?>
<svg id="Layer_1" xmlns="http://www.w3.org/2000/svg" version="1.1" viewBox="0 0 882.7716681 335.1851616">
  <!-- Generator: Adobe Illustrator 29.1.0, SVG Export Plug-In . SVG Version: 2.1.0 Build 142)  -->
  <defs>
    <style>
      .st0 {
        fill: #fff;
      }
    </style>
  </defs>
  <path class="st0" d="M510.2351093,148.188239c-1.1136949,7.3116397-6.3916304,13.6064286-12.8801096,16.899088-18.4485693,9.2484969-52.1014813,19.0296308-72.5837557,20.8696457-10.8464063.9684291-24.5012547.145264-34.8150258,1.9852789-9.4906041,1.6947509-20.0464825,14.2843288-23.6296671,22.8549282-4.9389868,11.7664147-3.1473945,25.2759972-3.2926603,37.8655751-.0484244,4.1158235-1.5979094,12.5895779.2421073,16.2211869,1.3073778,2.6147555,3.0021286.9200047,4.8421453-.4842145,13.267479-10.3137711,14.235908-19.4654228,34.3792319-21.789654,30.9897302-3.5347676,59.800495-1.9852825,90.7902252-8.9579689,20.6759591-4.6484625,33.9434418-7.1179522,50.3583116-21.3054395,16.8990843-14.6232775,32.7813299-32.5392152,49.3898825-47.9372389,15.059075-13.9937999,31.183413-26.9223274,46.0003808-41.1582354,14.8169677-14.235908,12.395895-13.8001142,18.6422596-19.1264741,5.5200427-4.6968795,12.2506218-8.764286,17.8675134-13.6064314,10.5558857-9.0063933,18.8359424-21.3054395,34.3792467-21.2085981,6.4400474,0,8.0379494,1.549485,10.9916758,6.8274279,9.7327003,17.6254135,6.5368962,29.6823524,1.1136875,47.7919731-5.5200575,18.4001523-8.8611201,27.6486492-22.0317613,41.8845572-26.4865409,28.6654989-55.2488813,49.8256763-89.7733717,68.0805665-2.9052872,2.9052872-.3873657,2.7116043,2.2758142,2.2758068,7.4569009-1.2105363,16.2211869-4.4063552,23.9686194-6.1011061,36.219256-7.7474325,73.5521848-8.1832227,109.4324995-16.4632942,21.450698-4.9389868,50.6488285-12.8316852,69.8237417-23.1454544,5.9074232-3.1473945,11.3306319-7.408482,17.0927671-10.5074558,12.928534-6.9242675,36.8487142-10.6042981,43.4824593,6.5368962,5.1811014,13.3158997-12.7832755,33.1202749-23.0486,40.0445405-9.0063785,6.0526817-23.0970392,15.107492-33.313954,18.0127792-19.8043863,5.713733-45.1288005,7.263218-65.9015863,10.6042953-38.5434651,6.1495231-76.9416865,12.7832607-115.1946347,20.3854275-14.9622262,3.0021286-31.9581593,5.6653086-46.4845953,9.2000762-7.263218,1.7915997-14.6232848,4.6484625-21.9833369,6.5853206-17.189616,4.6000381-36.848729,6.2947889-52.8278086,13.5095825-11.3790416,5.132677-15.9790796,10.6527198-29.9244597,9.296925-9.6842907-.9684291-18.0612036-10.1200808-19.0780534-19.659113s.6294804-9.0548177-1.8400167-9.7811395c-15.1559146.0968488-30.3118291,1.2105363-45.3709004-.629473-5.4232032-.6778974-14.7201226-3.7768748-19.3685814-1.3073778-3.7768748,1.9852752-14.526436,18.5454181-18.448573,23.1938806-4.6968795,5.5200427-18.2548865,19.2717326-24.452834,22.0317613-11.7179903,5.1811014-31.667635-3.2926529-38.1561068-14.1390703-7.6990081-12.8316852-3.1994172-37.8878095-4.4547722-53.6509719-.235126-2.9524154-.3873731-3.3895017-.7263218-4.1158235-1.1136949-2.4694971-11.5727318-4.4063552-14.3811702-4.7453039-29.1497209,8.0863812-57.6215296,19.2233155-87.8365136,23.0486148-19.7075375,2.5179141-39.608743,1.2589607-59.4131293,1.4526436-3.4379114-.4357901-4.3095212-1.6463265-4.6484477-5.0358282-.5810634-6.0526817,1.7431605-11.8148317,5.1326622-16.656977s4.7937357-4.5516137,4.5516284-7.0211107-8.7158616-14.6232775-9.8779883-15.3495993c-1.9368581-1.1621119-2.9536968.2421073-4.0674139,1.7915923-3.7284578,5.3263599-7.2148084,13.4611655-10.6527198,19.3685814-14.8169529,25.5181045-29.682345,47.4530244-53.6509645,65.4658109-12.2022122,9.1516517-26.680209,18.4001523-42.5624694,13.1706412-14.8169529-4.8905698-30.3602572-13.9937971-31.716052-31.2318375-1.5979021-17.7706719-1.5010532-31.4739447,1.1621267-46.823544,3.8253066-22.5159758,27.5518188-57.9120576,41.1098258-77.0385354,13.1706412-18.6422596,32.1518569-31.7644727,48.5667119-47.3077585,10.6527198-10.0716638,19.8527959-21.4022809,30.0213011-31.4739447,11.0400855-10.9432514,26.9707555-23.3875635,39.2213773-33.4108029,7.892691-6.4400548,16.3180357-13.0737924,24.5012584-19.0780497,6.9242619-5.0358282,7.8442814-7.4569009,13.896963.5326389,10.3137637,13.558007,5.3263599,22.0317613-3.5831846,33.9918588-1.8400093,2.4210727-10.7979782,12.395895-10.7979782,14.3327532s3.9705651,7.4569046,4.7937209,9.6842907c4.0189747,10.7495612,1.4042192,29.8760371.9200047,41.6424499-.6778974,17.5769872-1.6947509,35.2023952-2.4210727,52.7793842-.7263218,17.5769891-2.9052872,13.1706339,4.6000381,12.8316852,5.5684671-.2421073,13.6064314-1.5979094,19.2233229-2.5663385,19.2717326-3.341081,33.7981686-11.9116768,53.505706-1.8884374,3.7284578,1.8884374,9.7327151,9.6842907,12.0085145,9.7327114s7.263218-2.4210727,8.9579689-3.0989738c5.9074232-2.372652,13.7032654-6.3916304,18.4001523-10.6527198s5.3747843-4.6000381,1.5979094-5.4716257c-15.4464481.0484207-35.9771414,7.1663766-45.8551149-8.8611256-1.8400093-3.0021305-4.9389942-10.5558765-2.7116043-13.6548502s24.4044096-3.2442377,28.7623404-3.776873c4.1047752-.0803626,40.7708623-12.299049,57.7667954-20.675961,23.7749329-11.7179921,31.8128934-43.2403594,41.6908707-65.8047486,6.4400548-14.6232775,13.6064277-28.9560306,19.6591094-43.7729909,4.6968814-11.4758904,8.3769111-24.5012584,13.3158997-35.5897683.9684291-2.1789654,2.2758082-4.1158235,4.0674019-1.6463265s8.3284904,21.450698,9.2484978,24.6465168c5.035831,18.1096206-.1452645,29.3918208-3.8737163,46.4845953-2.5179155,11.5727244-4.4063524,23.3875635-7.263218,34.8634465-3.1958161,12.9285266-11.6695695,25.566527-1.6947509,37.5266264,4.1641768,5.1326567,9.5389584,7.2632005,15.8337473,7.6989934,16.4148734,1.2105363,37.6234678,1.501065,53.5541267-2.1789654,2.0821203-.4842145,14.9138054-4.6968814,15.4948688-4.1158235h-.0484244ZM129.1582709,157.8725297c-.8715803-.7263218-6.9242619,5.6168888-7.7474325,6.5368962-8.6190128,9.0548122-16.4632942,18.3517316-25.3728534,27.4065419-15.2043482,15.3011785-30.0213011,29.9728804-44.0635226,46.484599-14.1874799,16.60856-23.9202098,29.3434037-26.3412825,52.1014868-.2905169,2.8568628-1.404234,6.9242619,2.8568776,5.76215,8.2316471-2.2273898,27.6002285-18.4485767,34.3792319-24.6949412,16.3664453-15.059075,27.45497-33.6529101,38.9308604-52.5856977,11.4758904-18.9327875,14.5748457-26.3412714,20.3854201-40.1413856,2.8084384-6.7305818,6.1010913-13.6064286,7.0211107-20.821225l-.0484096-.0484244Z"/>
</svg>