<?xml version="1.0" encoding="UTF-8"?>
<svg id="Layer_1" xmlns="http://www.w3.org/2000/svg" version="1.1" viewBox="0 0 882.8 335.2">
  <!-- Generator: Adobe Illustrator 29.1.0, SVG Export Plug-In . SVG Version: 2.1.0 Build 142)  -->
  <path d="M510.2,148.2c-1.1,7.3-6.4,13.6-12.9,16.9-18.4,9.2-52.1,19-72.6,20.9-10.8,1-24.5.1-34.8,2-9.5,1.7-20,14.3-23.6,22.9-4.9,11.8-3.1,25.3-3.3,37.9,0,4.1-1.6,12.6.2,16.2,1.3,2.6,3,.9,4.8-.5,13.3-10.3,14.2-19.5,34.4-21.8,31-3.5,59.8-2,90.8-9,20.7-4.6,33.9-7.1,50.4-21.3,16.9-14.6,32.8-32.5,49.4-47.9,15.1-14,31.2-26.9,46-41.2,14.8-14.2,12.4-13.8,18.6-19.1,5.5-4.7,12.3-8.8,17.9-13.6,10.6-9,18.8-21.3,34.4-21.2,6.4,0,8,1.5,11,6.8,9.7,17.6,6.5,29.7,1.1,47.8-5.5,18.4-8.9,27.6-22,41.9-26.5,28.7-55.2,49.8-89.8,68.1-2.9,2.9-.4,2.7,2.3,2.3,7.5-1.2,16.2-4.4,24-6.1,36.2-7.7,73.6-8.2,109.4-16.5,21.5-4.9,50.6-12.8,69.8-23.1,5.9-3.1,11.3-7.4,17.1-10.5,12.9-6.9,36.8-10.6,43.5,6.5,5.2,13.3-12.8,33.1-23,40-9,6.1-23.1,15.1-33.3,18-19.8,5.7-45.1,7.3-65.9,10.6-38.5,6.1-76.9,12.8-115.2,20.4-15,3-32,5.7-46.5,9.2-7.3,1.8-14.6,4.6-22,6.6-17.2,4.6-36.8,6.3-52.8,13.5-11.4,5.1-16,10.7-29.9,9.3-9.7-1-18.1-10.1-19.1-19.7s.6-9.1-1.8-9.8c-15.2,0-30.3,1.2-45.4-.6-5.4-.7-14.7-3.8-19.4-1.3-3.8,2-14.5,18.5-18.4,23.2-4.7,5.5-18.3,19.3-24.5,22-11.7,5.2-31.7-3.3-38.2-14.1-7.7-12.8-2.7-37.9-4.5-53.7s-.4-3.4-.7-4.1c-1.1-2.5-11.6-4.4-14.4-4.7-29.1,8.1-57.6,19.2-87.8,23-19.7,2.5-39.6,1.3-59.4,1.5-3.4-.4-4.3-1.6-4.6-5-.6-6.1,1.7-11.8,5.1-16.7s4.8-4.6,4.6-7-8.7-14.6-9.9-15.3c-1.9-1.2-3,.2-4.1,1.8-3.7,5.3-7.2,13.5-10.7,19.4-14.8,25.5-29.7,47.5-53.7,65.5-12.2,9.2-26.7,18.4-42.6,13.2-14.8-4.9-30.4-14-31.7-31.2-1.6-17.8-1.5-31.5,1.2-46.8,3.8-22.5,27.6-57.9,41.1-77,13.2-18.6,32.2-31.8,48.6-47.3,10.7-10.1,19.9-21.4,30-31.5,11-10.9,27-23.4,39.2-33.4,7.9-6.4,16.3-13.1,24.5-19.1,6.9-5,7.8-7.5,13.9.5,10.3,13.6,5.3,22-3.6,34-1.8,2.4-10.8,12.4-10.8,14.3s4,7.5,4.8,9.7c4,10.7,1.4,29.9.9,41.6-.7,17.6-1.7,35.2-2.4,52.8-.7,17.6-2.9,13.2,4.6,12.8,5.6-.2,13.6-1.6,19.2-2.6,19.3-3.3,33.8-11.9,53.5-1.9,3.7,1.9,9.7,9.7,12,9.7s7.3-2.4,9-3.1c5.9-2.4,13.7-6.4,18.4-10.7s5.4-4.6,1.6-5.5c-15.4,0-36,7.2-45.9-8.9-1.8-3-4.9-10.6-2.7-13.7s24.4-3.2,28.8-3.8c4.1,0,40.8-12.3,57.8-20.7,23.8-11.7,31.8-43.2,41.7-65.8,6.4-14.6,13.6-29,19.7-43.8,4.7-11.5,8.4-24.5,13.3-35.6,1-2.2,2.3-4.1,4.1-1.6s8.3,21.5,9.2,24.6c5,18.1-.1,29.4-3.9,46.5-2.5,11.6-4.4,23.4-7.3,34.9-3.2,12.9-11.7,25.6-1.7,37.5,4.2,5.1,9.5,7.3,15.8,7.7,16.4,1.2,37.6,1.5,53.6-2.2,2.1-.5,14.9-4.7,15.5-4.1h0ZM129.2,157.9c-.9-.7-6.9,5.6-7.7,6.5-8.6,9.1-16.5,18.4-25.4,27.4-15.2,15.3-30,30-44.1,46.5-14.2,16.6-23.9,29.3-26.3,52.1-.3,2.9-1.4,6.9,2.9,5.8,8.2-2.2,27.6-18.4,34.4-24.7,16.4-15.1,27.5-33.7,38.9-52.6,11.5-18.9,14.6-26.3,20.4-40.1,2.8-6.7,6.1-13.6,7-20.8h0Z"/>
</svg>